<?xml version="1.0" encoding="UTF-8" standalone="no"?>
<!DOCTYPE svg PUBLIC "-//W3C//DTD SVG 1.1//EN" "http://www.w3.org/Graphics/SVG/1.1/DTD/svg11.dtd">
<svg width="229px" height="229px" version="1.1" xmlns="http://www.w3.org/2000/svg" xmlns:xlink="http://www.w3.org/1999/xlink" xml:space="preserve" xmlns:serif="http://www.serif.com/" style="fill-rule:evenodd;clip-rule:evenodd;stroke-linecap:round;">
    <rect id="Artboard1" x="0" y="0" width="228.504" height="228.504" style="fill:none;"/>
    <clipPath id="_clip1">
        <rect id="Artboard11" serif:id="Artboard1" x="0" y="0" width="228.504" height="228.504"/>
    </clipPath>
    <g clip-path="url(#_clip1)">
        <g transform="matrix(1,0,0,1,-84.1184,-244.651)">
            <path d="M312.623,278.926C312.623,260.009 297.264,244.651 278.347,244.651L118.394,244.651C99.477,244.651 84.118,260.009 84.118,278.926L84.118,438.879C84.118,457.797 99.477,473.155 118.394,473.155L278.347,473.155C297.264,473.155 312.623,457.797 312.623,438.879L312.623,278.926Z" style="fill:rgb(255,236,153);"/>
            <g transform="matrix(0.369147,0,0,0.369147,76.2934,246.896)">
                <g transform="matrix(1,0,0,1,145.768,213.967)">
                    <path d="M-3.87,6.06C-2.58,46.77 7.65,210.33 6.93,252.3M9.63,1.95C10.5,47.82 4.26,223.35 3.96,263.85" style="fill:none;fill-rule:nonzero;stroke:black;stroke-width:12px;"/>
                </g>
                <g transform="matrix(1,0,0,1,146.636,214.836)">
                    <path d="M6.93,1.2C23.28,20.28 78.42,101.67 94.38,120.54M0.33,-5.55C19.53,10.74 92.97,87.57 109.17,109.17" style="fill:none;fill-rule:nonzero;stroke:black;stroke-width:12px;"/>
                </g>
                <g transform="matrix(1,0,0,1,251.767,327.786)">
                    <path d="M-8.16,6.72C-42.72,24 -167.73,88.77 -200.52,104.79M3,2.97C-33.3,21.63 -171.18,97.86 -207.12,115.98" style="fill:none;fill-rule:nonzero;stroke:black;stroke-width:12px;"/>
                </g>
                <g transform="matrix(1,0,0,1,145.768,465.064)">
                    <path d="M0.09,0.24C18.75,-6.72 90.03,-31.98 108.57,-38.76M-4.26,-2.79C15.93,-9.42 96.81,-28.62 115.77,-34.44" style="fill:none;fill-rule:nonzero;stroke:black;stroke-width:12px;"/>
                </g>
                <g transform="matrix(1,0,0,1,255.242,425.966)">
                    <path d="M-4.17,-1.26C-36.84,-16.02 -162.78,-74.16 -195.93,-87.96M9.15,-9.36C-24.48,-23.19 -169.05,-68.97 -201.45,-80.01" style="fill:none;fill-rule:nonzero;stroke:black;stroke-width:12px;"/>
                </g>
                <g transform="matrix(1,0,0,1,289.123,245.353)">
                    <path d="M3.66,-7.8C71.79,-5.73 141.18,12.78 327.63,3.75M-0.48,-0.63C70.32,3.96 132.87,3.66 324.51,3.27M326.19,-9.36C314.49,33.54 310.44,69.15 310.68,153.51M319.77,-5.07C319.32,37.02 317.16,71.76 319.02,164.73M308.07,171C231.42,158.01 155.79,161.58 7.32,169.05M319.44,163.8C224.55,157.53 143.52,153.15 2.73,159.24M-5.52,168.12C10.2,108.9 -11.34,64.5 0.27,0.78M-3.87,155.91C-0.57,117.51 -3.78,83.01 -4.11,-1.47" style="fill:none;fill-rule:nonzero;stroke:rgb(30,30,30);stroke-width:6px;"/>
                </g>
                <g transform="matrix(1,0,0,1,319.646,284.001)">
                    <path d="M23.94,2.73C29.52,-0.36 34.98,-0.84 41.16,1.44C47.37,3.72 57.3,9.84 61.08,16.38C64.89,22.92 64.95,33.72 63.96,40.62C63,47.55 60.24,53.4 55.26,57.9C50.31,62.43 41.25,68.07 34.17,67.65C27.12,67.23 18.96,60.24 12.87,55.41C6.81,50.58 -1.2,45.66 -2.28,38.67C-3.36,31.68 1.83,20.04 6.39,13.47C10.95,6.9 21.48,1.8 25.05,-0.75C28.62,-3.27 28.02,-2.19 27.84,-1.68M21.6,-1.71C27.9,-3.63 37.59,-0.48 43.92,2.37C50.22,5.19 56.04,8.7 59.46,15.24C62.91,21.78 65.85,35.04 64.53,41.61C63.21,48.18 57.06,51.48 51.54,54.69C45.99,57.87 37.23,60.72 31.35,60.78C25.47,60.87 21.33,58.89 16.26,55.11C11.16,51.33 2.58,44.04 0.84,38.07C-0.9,32.1 1.8,25.47 5.73,19.32C9.69,13.2 21.51,4.71 24.54,1.29C27.57,-2.13 24.3,-2.37 23.94,-1.2" style="fill:none;fill-rule:nonzero;stroke:rgb(30,30,30);stroke-width:6px;"/>
                </g>
                <g transform="matrix(1,0,0,1,473.571,294.378)">
                    <path d="M0.78,5.25C21.63,2.37 29.01,-0.87 74.19,-0.48M0.36,2.22C24.09,1.08 41.01,-3.27 74.58,1.83" style="fill:none;fill-rule:nonzero;stroke:rgb(30,30,30);stroke-width:6px;"/>
                </g>
                <g transform="matrix(1,0,0,1,473.571,319.455)">
                    <path d="M4.35,1.89C11.55,-1.98 34.95,-1.11 72.87,4.23M2.79,1.65C26.25,-3.24 56.7,1.29 71.16,-0.39" style="fill:none;fill-rule:nonzero;stroke:rgb(30,30,30);stroke-width:6px;"/>
                </g>
                <g transform="matrix(1,0,0,1,474.436,345.398)">
                    <path d="M-5.58,-1.35C29.16,-0.69 56.31,3.99 78.21,0.69M-1.56,-2.7C28.53,1.41 52.56,-0.78 72,-1.41" style="fill:none;fill-rule:nonzero;stroke:rgb(30,30,30);stroke-width:6px;"/>
                </g>
                <g transform="matrix(1,0,0,1,324.835,380.852)">
                    <path d="M1.41,-0.93C73.53,9.48 158.94,2.4 234.51,11.22M2.16,3.63C75.39,3.3 157.11,1.26 220.74,-4.11" style="fill:none;fill-rule:nonzero;stroke:rgb(30,30,30);stroke-width:6px;"/>
                </g>
                <g transform="matrix(1,0,0,1,435.522,405.93)">
                    <path d="M-0.63,4.23C4.8,27.09 4.53,58.41 3.27,92.01M-2.34,-0.39C-1.17,18.57 -2.13,37.89 -1.5,92.94" style="fill:none;fill-rule:nonzero;stroke:rgb(30,30,30);stroke-width:6px;"/>
                </g>
                <g transform="matrix(1,0,0,1,433.793,450.896)">
                    <path d="M4.71,0.69C-9.27,19.59 -24.06,24.48 -52.11,48.84M-1.5,-1.41C-19.68,14.73 -35.52,31.44 -47.31,43.89" style="fill:none;fill-rule:nonzero;stroke:rgb(30,30,30);stroke-width:6px;"/>
                </g>
                <g transform="matrix(1,0,0,1,436.387,450.896)">
                    <path d="M4.41,5.61C21.45,14.61 30.54,37.65 51.63,43.32M-2.49,-2.07C12.06,11.82 26.73,24.99 48.42,45.45" style="fill:none;fill-rule:nonzero;stroke:rgb(30,30,30);stroke-width:6px;"/>
                </g>
                <g transform="matrix(1,0,0,1,349.518,286.808)">
                    <path d="M1.68,-1.59C-2.52,10.59 2.07,16.65 -0.39,28.98M-0.75,-1.11C-0.57,6.3 -0.03,14.16 0.27,30.69" style="fill:none;fill-rule:nonzero;stroke:rgb(30,30,30);stroke-width:6px;"/>
                </g>
                <g transform="matrix(1,0,0,1,348.963,317.882)">
                    <path d="M-3.24,1.29C16.38,-2.61 27.93,-1.62 34.38,-2.97M-0.36,-1.68C8.61,-1.26 17.01,0.48 35.73,-0.24" style="fill:none;fill-rule:nonzero;stroke:rgb(30,30,30);stroke-width:6px;"/>
                </g>
                <g transform="matrix(0.997194,0.0748643,-0.0748643,0.997194,293.155,77.9385)">
                    <path d="M0,0L17.67,17.67L78.33,7.32L121.98,1.62L154.65,-0.42L185.91,0.81L222.24,5.28L262.62,11.58L282.72,14.82L301.17,-4.47L259.98,-10.56L202.35,-18.27L161.13,-21.3L126.63,-20.49L77.94,-14.01L37.74,-7.5L0,0" style="fill:rgb(134,142,150);"/>
                    <path d="M0,0C6.36,6.36 12.75,12.75 17.67,17.67M0,0C4.02,4.02 8.01,8.01 17.67,17.67M17.67,17.67C35.25,14.64 52.86,11.64 78.33,7.32M17.67,17.67C40.71,13.71 63.78,9.78 78.33,7.32M78.33,7.32C88.86,5.94 99.36,4.56 121.98,1.62M78.33,7.32C90.39,5.73 102.45,4.17 121.98,1.62M121.98,1.62C134.67,0.84 147.36,0.06 154.65,-0.42M121.98,1.62C131.64,1.02 141.33,0.42 154.65,-0.42M154.65,-0.42C161.43,-0.15 168.18,0.12 185.91,0.81M154.65,-0.42C166.32,0.06 177.99,0.51 185.91,0.81M185.91,0.81C200.16,2.55 214.41,4.32 222.24,5.28M185.91,0.81C197.55,2.25 209.19,3.66 222.24,5.28M222.24,5.28C231.99,6.81 241.77,8.31 262.62,11.58M222.24,5.28C236.55,7.5 250.86,9.75 262.62,11.58M262.62,11.58C267.12,12.3 271.62,13.02 282.72,14.82M262.62,11.58C267.06,12.3 271.5,12.99 282.72,14.82M282.72,14.82C286.56,10.8 290.4,6.81 301.17,-4.47M282.72,14.82C288.6,8.64 294.51,2.49 301.17,-4.47M301.17,-4.47C287.01,-6.57 272.82,-8.64 259.98,-10.56M301.17,-4.47C291.75,-5.85 282.33,-7.26 259.98,-10.56M259.98,-10.56C240.21,-13.2 220.41,-15.84 202.35,-18.27M259.98,-10.56C246.69,-12.33 233.43,-14.1 202.35,-18.27M202.35,-18.27C187.95,-19.32 173.58,-20.4 161.13,-21.3M202.35,-18.27C192.6,-18.99 182.88,-19.71 161.13,-21.3M161.13,-21.3C153.75,-21.15 146.37,-20.97 126.63,-20.49M161.13,-21.3C150.42,-21.06 139.68,-20.79 126.63,-20.49M126.63,-20.49C108.39,-18.06 90.15,-15.63 77.94,-14.01M126.63,-20.49C107.19,-17.91 87.75,-15.3 77.94,-14.01M77.94,-14.01C64.89,-11.91 51.84,-9.78 37.74,-7.5M77.94,-14.01C67.92,-12.39 57.93,-10.77 37.74,-7.5M37.74,-7.5C26.7,-5.31 15.66,-3.12 0,0M37.74,-7.5C25.05,-4.98 12.36,-2.46 0,0M0,0M0,0" style="fill:none;stroke:black;stroke-width:6px;"/>
                </g>
                <g transform="matrix(0.997194,0.0748643,-0.0748643,0.997194,322.133,108.161)">
                    <path d="M0,0L14.04,14.04L62.25,5.82L96.9,1.29L122.88,-0.33L147.72,0.66L176.58,4.2L208.65,9.18L224.61,11.76L239.31,-3.54L206.55,-8.4L160.77,-14.52L128.04,-16.92L100.62,-16.29L61.92,-11.13L30,-5.97L0,0" style="fill:rgb(134,142,150);"/>
                    <path d="M0,0C3.96,3.96 7.92,7.92 14.04,14.04M0,0C5.28,5.28 10.56,10.56 14.04,14.04M14.04,14.04C26.28,11.94 38.52,9.84 62.25,5.82M14.04,14.04C28.8,11.52 43.59,9 62.25,5.82M62.25,5.82C71.49,4.59 80.73,3.39 96.9,1.29M62.25,5.82C71.01,4.65 79.77,3.51 96.9,1.29M96.9,1.29C105.81,0.75 114.69,0.18 122.88,-0.33M96.9,1.29C106.92,0.66 116.94,0.06 122.88,-0.33M122.88,-0.33C131.25,0 139.65,0.33 147.72,0.66M122.88,-0.33C130.41,-0.03 137.94,0.27 147.72,0.66M147.72,0.66C153.99,1.41 160.29,2.19 176.58,4.2M147.72,0.66C158.04,1.92 168.39,3.18 176.58,4.2M176.58,4.2C187.2,5.85 197.82,7.5 208.65,9.18M176.58,4.2C188.85,6.12 201.12,8.01 208.65,9.18M208.65,9.18C213.21,9.93 217.74,10.65 224.61,11.76M208.65,9.18C212.04,9.75 215.4,10.29 224.61,11.76M224.61,11.76C227.82,8.43 231.03,5.07 239.31,-3.54M224.61,11.76C227.7,8.55 230.76,5.37 239.31,-3.54M239.31,-3.54C230.04,-4.92 220.8,-6.27 206.55,-8.4M239.31,-3.54C226.38,-5.46 213.48,-7.38 206.55,-8.4M206.55,-8.4C192.36,-10.29 178.17,-12.18 160.77,-14.52M206.55,-8.4C189.9,-10.62 173.22,-12.84 160.77,-14.52M160.77,-14.52C151.2,-15.21 141.63,-15.93 128.04,-16.92M160.77,-14.52C153.6,-15.03 146.4,-15.57 128.04,-16.92M128.04,-16.92C121.08,-16.77 114.12,-16.59 100.62,-16.29M128.04,-16.92C120.09,-16.74 112.14,-16.56 100.62,-16.29M100.62,-16.29C87.9,-14.58 75.21,-12.9 61.92,-11.13M100.62,-16.29C90.54,-14.94 80.46,-13.59 61.92,-11.13M61.92,-11.13C54.45,-9.93 46.98,-8.7 30,-5.97M61.92,-11.13C52.56,-9.63 43.23,-8.1 30,-5.97M30,-5.97C19.62,-3.9 9.27,-1.83 0,0M30,-5.97C19.35,-3.84 8.73,-1.74 0,0M0,0M0,0" style="fill:none;stroke:black;stroke-width:6px;"/>
                </g>
                <g transform="matrix(0.997194,0.0748643,-0.0748643,0.997194,347.25,137.557)">
                    <path d="M0,0L10.71,10.71L47.58,4.44L74.07,0.99L93.9,-0.24L112.89,0.48L134.94,3.21L159.45,7.02L171.66,9L182.88,-2.7L157.86,-6.42L122.85,-11.1L97.83,-12.93L76.89,-12.45L47.31,-8.49L22.92,-4.56L0,0" style="fill:rgb(134,142,150);"/>
                    <path d="M0,0C2.28,2.28 4.56,4.56 10.71,10.71M0,0C3.69,3.69 7.41,7.41 10.71,10.71M10.71,10.71C24.81,8.31 38.91,5.91 47.58,4.44M10.71,10.71C21.21,8.94 31.71,7.14 47.58,4.44M47.58,4.44C57.03,3.21 66.48,1.98 74.07,0.99M47.58,4.44C53.67,3.63 59.76,2.85 74.07,0.99M74.07,0.99C79.68,0.63 85.26,0.3 93.9,-0.24M74.07,0.99C79.32,0.66 84.57,0.33 93.9,-0.24M93.9,-0.24C98.88,-0.06 103.89,0.15 112.89,0.48M93.9,-0.24C101.1,0.03 108.3,0.3 112.89,0.48M112.89,0.48C118.08,1.14 123.3,1.77 134.94,3.21M112.89,0.48C121.47,1.56 130.08,2.61 134.94,3.21M134.94,3.21C141,4.14 147.09,5.1 159.45,7.02M134.94,3.21C141.51,4.23 148.11,5.25 159.45,7.02M159.45,7.02C163.44,7.68 167.46,8.31 171.66,9M159.45,7.02C162.69,7.56 165.93,8.07 171.66,9M171.66,9C175.74,4.74 179.82,0.45 182.88,-2.7M171.66,9C174.27,6.24 176.91,3.51 182.88,-2.7M182.88,-2.7C173.37,-4.11 163.86,-5.52 157.86,-6.42M182.88,-2.7C173.88,-4.05 164.91,-5.37 157.86,-6.42M157.86,-6.42C150.69,-7.38 143.49,-8.34 122.85,-11.1M157.86,-6.42C148.2,-7.71 138.54,-9 122.85,-11.1M122.85,-11.1C114.03,-11.73 105.18,-12.39 97.83,-12.93M122.85,-11.1C117.81,-11.46 112.77,-11.85 97.83,-12.93M97.83,-12.93C91.59,-12.78 85.38,-12.66 76.89,-12.45M97.83,-12.93C92.49,-12.81 87.15,-12.69 76.89,-12.45M76.89,-12.45C66.69,-11.1 56.52,-9.72 47.31,-8.49M76.89,-12.45C65.46,-10.92 54.03,-9.39 47.31,-8.49M47.31,-8.49C39.78,-7.29 32.25,-6.06 22.92,-4.56M47.31,-8.49C40.08,-7.32 32.82,-6.15 22.92,-4.56M22.92,-4.56C14.01,-2.79 5.07,-1.02 0,0M22.92,-4.56C14.46,-2.88 6,-1.2 0,0M0,0M0,0" style="fill:none;stroke:black;stroke-width:6px;"/>
                </g>
                <g transform="matrix(0.997194,0.0748643,-0.0748643,0.997194,369.456,162.295)">
                    <path d="M0,0L7.98,7.98L35.37,3.3L55.05,0.72L69.81,-0.18L83.91,0.36L100.29,2.37L118.53,5.22L127.59,6.69L135.93,-2.01L117.33,-4.77L91.32,-8.25L72.72,-9.63L57.15,-9.24L35.16,-6.33L17.04,-3.39L0,0" style="fill:rgb(134,142,150);"/>
                    <path d="M0,0C2.97,2.97 5.94,5.94 7.98,7.98M0,0C2.61,2.61 5.22,5.22 7.98,7.98M7.98,7.98C13.53,7.02 19.08,6.06 35.37,3.3M7.98,7.98C14.43,6.87 20.88,5.76 35.37,3.3M35.37,3.3C40.77,2.58 46.2,1.89 55.05,0.72M35.37,3.3C41.85,2.46 48.36,1.62 55.05,0.72M55.05,0.72C59.94,0.42 64.86,0.12 69.81,-0.18M55.05,0.72C60,0.42 64.92,0.12 69.81,-0.18M69.81,-0.18C72.63,-0.06 75.45,0.03 83.91,0.36M69.81,-0.18C74.79,0 79.8,0.21 83.91,0.36M83.91,0.36C88.26,0.9 92.61,1.44 100.29,2.37M83.91,0.36C90.39,1.17 96.87,1.95 100.29,2.37M100.29,2.37C106.59,3.36 112.89,4.35 118.53,5.22M100.29,2.37C105.66,3.21 111.03,4.05 118.53,5.22M118.53,5.22C121.86,5.76 125.22,6.3 127.59,6.69M118.53,5.22C120.72,5.58 122.91,5.94 127.59,6.69M127.59,6.69C129.63,4.56 131.7,2.43 135.93,-2.01M127.59,6.69C130.14,4.02 132.69,1.35 135.93,-2.01M135.93,-2.01C129.51,-2.97 123.09,-3.9 117.33,-4.77M135.93,-2.01C129.24,-3 122.52,-3.99 117.33,-4.77M117.33,-4.77C107.67,-6.06 97.98,-7.35 91.32,-8.25M117.33,-4.77C111.96,-5.49 106.56,-6.21 91.32,-8.25M91.32,-8.25C86.91,-8.58 82.5,-8.91 72.72,-9.63M91.32,-8.25C85.71,-8.67 80.13,-9.06 72.72,-9.63M72.72,-9.63C67.5,-9.48 62.25,-9.36 57.15,-9.24M72.72,-9.63C68.4,-9.51 64.05,-9.42 57.15,-9.24M57.15,-9.24C52.26,-8.61 47.37,-7.95 35.16,-6.33M57.15,-9.24C51.09,-8.43 45,-7.62 35.16,-6.33M35.16,-6.33C30,-5.49 24.84,-4.65 17.04,-3.39M35.16,-6.33C30.42,-5.55 25.65,-4.77 17.04,-3.39M17.04,-3.39C13.32,-2.64 9.6,-1.92 0,0M17.04,-3.39C10.92,-2.16 4.8,-0.96 0,0M0,0M0,0" style="fill:none;stroke:black;stroke-width:6px;"/>
                </g>
                <g transform="matrix(0.997194,0.0748643,-0.0748643,0.997194,388.267,182.961)">
                    <path d="M0,0L5.64,6.51L25.08,2.7L39.03,0.6L49.5,-0.15L59.49,0.3L71.13,1.95L84.03,4.26L90.48,5.46L96.39,-1.65L83.19,-3.9L64.74,-6.72L51.57,-7.86L40.53,-7.56L24.93,-5.16L12.09,-2.76L0,0" style="fill:rgb(134,142,150);"/>
                    <path d="M0,0C2.04,2.34 4.08,4.68 5.64,6.51M0,0C2.22,2.58 4.47,5.13 5.64,6.51M5.64,6.51C11.52,5.34 17.4,4.2 25.08,2.7M5.64,6.51C11.13,5.43 16.62,4.35 25.08,2.7M25.08,2.7C29.52,2.04 33.96,1.35 39.03,0.6M25.08,2.7C27.93,2.25 30.78,1.83 39.03,0.6M39.03,0.6C41.37,0.42 43.71,0.27 49.5,-0.15M39.03,0.6C41.64,0.42 44.22,0.24 49.5,-0.15M49.5,-0.15C51.93,-0.03 54.33,0.06 59.49,0.3M49.5,-0.15C53.07,0 56.67,0.18 59.49,0.3M59.49,0.3C62.79,0.78 66.09,1.23 71.13,1.95M59.49,0.3C62.49,0.72 65.49,1.14 71.13,1.95M71.13,1.95C73.86,2.43 76.59,2.94 84.03,4.26M71.13,1.95C75.9,2.79 80.7,3.66 84.03,4.26M84.03,4.26C86.16,4.65 88.26,5.04 90.48,5.46M84.03,4.26C86.31,4.68 88.59,5.1 90.48,5.46M90.48,5.46C91.92,3.72 93.36,2.01 96.39,-1.65M90.48,5.46C91.74,3.93 93,2.4 96.39,-1.65M96.39,-1.65C91.8,-2.43 87.24,-3.21 83.19,-3.9M96.39,-1.65C93.18,-2.19 90,-2.73 83.19,-3.9M83.19,-3.9C77.85,-4.71 72.51,-5.52 64.74,-6.72M83.19,-3.9C77.16,-4.83 71.1,-5.76 64.74,-6.72M64.74,-6.72C61.35,-7.02 57.96,-7.32 51.57,-7.86M64.74,-6.72C60.9,-7.05 57.06,-7.38 51.57,-7.86M51.57,-7.86C48.9,-7.77 46.23,-7.71 40.53,-7.56M51.57,-7.86C49.26,-7.8 46.98,-7.74 40.53,-7.56M40.53,-7.56C35.52,-6.78 30.51,-6.03 24.93,-5.16M40.53,-7.56C35.34,-6.75 30.18,-5.97 24.93,-5.16M24.93,-5.16C20.7,-4.38 16.47,-3.57 12.09,-2.76M24.93,-5.16C22.11,-4.62 19.29,-4.11 12.09,-2.76M12.09,-2.76C8.01,-1.83 3.96,-0.9 0,0M12.09,-2.76C8.97,-2.07 5.88,-1.35 0,0M0,0M0,0" style="fill:none;stroke:black;stroke-width:6px;"/>
                </g>
                <g transform="matrix(0.997194,0.0748643,-0.0748643,0.997194,403.087,200.389)">
                    <path d="M0,0L3.66,4.23L16.29,1.74L25.35,0.39L32.16,-0.09L38.67,0.18L46.2,1.26L54.6,2.76L58.8,3.54L62.64,-1.08L54.06,-2.52L42.09,-4.38L33.51,-5.1L26.34,-4.92L16.2,-3.36L7.86,-1.8L0,0" style="fill:rgb(134,142,150);"/>
                    <path d="M0,0C1.05,1.2 2.1,2.43 3.66,4.23M0,0C1.38,1.56 2.73,3.15 3.66,4.23M3.66,4.23C6.84,3.6 9.99,3 16.29,1.74M3.66,4.23C6.57,3.66 9.45,3.09 16.29,1.74M16.29,1.74C18.48,1.41 20.67,1.08 25.35,0.39M16.29,1.74C19.08,1.32 21.87,0.9 25.35,0.39M25.35,0.39C26.88,0.27 28.38,0.18 32.16,-0.09M25.35,0.39C27.99,0.21 30.63,0 32.16,-0.09M32.16,-0.09C34.05,0 35.91,0.06 38.67,0.18M32.16,-0.09C34.62,0 37.08,0.12 38.67,0.18M38.67,0.18C41.31,0.57 43.95,0.93 46.2,1.26M38.67,0.18C40.47,0.45 42.27,0.72 46.2,1.26M46.2,1.26C49.5,1.86 52.83,2.46 54.6,2.76M46.2,1.26C48.84,1.74 51.48,2.22 54.6,2.76M54.6,2.76C56.13,3.06 57.66,3.33 58.8,3.54M54.6,2.76C55.62,2.97 56.64,3.15 58.8,3.54M58.8,3.54C59.76,2.4 60.69,1.23 62.64,-1.08M58.8,3.54C59.97,2.13 61.14,0.72 62.64,-1.08M62.64,-1.08C59.76,-1.56 56.91,-2.04 54.06,-2.52M62.64,-1.08C59.85,-1.53 57.03,-2.01 54.06,-2.52M54.06,-2.52C50.55,-3.06 47.04,-3.6 42.09,-4.38M54.06,-2.52C51.54,-2.91 48.99,-3.3 42.09,-4.38M42.09,-4.38C39.87,-4.56 37.65,-4.74 33.51,-5.1M42.09,-4.38C39.75,-4.56 37.41,-4.77 33.51,-5.1M33.51,-5.1C31.38,-5.04 29.25,-4.98 26.34,-4.92M33.51,-5.1C30.99,-5.04 28.5,-4.98 26.34,-4.92M26.34,-4.92C23.49,-4.47 20.64,-4.02 16.2,-3.36M26.34,-4.92C22.95,-4.38 19.56,-3.87 16.2,-3.36M16.2,-3.36C13.11,-2.79 10.02,-2.19 7.86,-1.8M16.2,-3.36C13.71,-2.88 11.19,-2.43 7.86,-1.8M7.86,-1.8C5.64,-1.29 3.45,-0.78 0,0M7.86,-1.8C6.12,-1.41 4.38,-0.99 0,0M0,0M0,0" style="fill:none;stroke:black;stroke-width:6px;"/>
                </g>
            </g>
        </g>
    </g>
</svg>